<?xml version="1.0" encoding="utf-8"?>
<!-- Generator: Adobe Illustrator 27.5.0, SVG Export Plug-In . SVG Version: 6.00 Build 0)  -->
<svg version="1.1" xmlns="http://www.w3.org/2000/svg" xmlns:xlink="http://www.w3.org/1999/xlink" x="0px" y="0px"
	 viewBox="0 0 800 800" style="enable-background:new 0 0 800 800;" xml:space="preserve">
<g id="Layer_2" style="display:none;">
</g>
<g id="Layer_1">
	<g>
		<g>
			<g>
				<linearGradient id="SVGID_1_" gradientUnits="userSpaceOnUse" x1="347.1422" y1="305.0995" x2="330.8765" y2="374.6266">
					<stop  offset="0" style="stop-color:#27AAE1"/>
					<stop  offset="1" style="stop-color:#2B4D8C"/>
				</linearGradient>
				<rect x="329.181" y="332.504" style="fill:url(#SVGID_1_);" width="18.722" height="18.713"/>
				
					<linearGradient id="SVGID_00000091707396469660881470000013810716660920617378_" gradientUnits="userSpaceOnUse" x1="370.2239" y1="310.4981" x2="353.9576" y2="380.028">
					<stop  offset="0" style="stop-color:#27AAE1"/>
					<stop  offset="1" style="stop-color:#2B4D8C"/>
				</linearGradient>
				
					<rect x="353.531" y="332.504" style="fill:url(#SVGID_00000091707396469660881470000013810716660920617378_);" width="18.711" height="18.713"/>
				
					<linearGradient id="SVGID_00000047752431984324521380000003774703303884916896_" gradientUnits="userSpaceOnUse" x1="375.3797" y1="311.7022" x2="359.113" y2="381.2336">
					<stop  offset="0" style="stop-color:#27AAE1"/>
					<stop  offset="1" style="stop-color:#2B4D8C"/>
				</linearGradient>
				
					<rect x="353.531" y="355.746" style="fill:url(#SVGID_00000047752431984324521380000003774703303884916896_);" width="18.711" height="18.714"/>
				
					<linearGradient id="SVGID_00000001647298084262945740000009196939495141979830_" gradientUnits="userSpaceOnUse" x1="352.2984" y1="306.3018" x2="336.0317" y2="375.8331">
					<stop  offset="0" style="stop-color:#27AAE1"/>
					<stop  offset="1" style="stop-color:#2B4D8C"/>
				</linearGradient>
				
					<rect x="329.181" y="355.746" style="fill:url(#SVGID_00000001647298084262945740000009196939495141979830_);" width="18.722" height="18.714"/>
				
					<linearGradient id="SVGID_00000065060324148411202700000008603881081280763069_" gradientUnits="userSpaceOnUse" x1="615.6087" y1="190.7572" x2="325.9244" y2="392.2191">
					<stop  offset="0" style="stop-color:#808285"/>
					<stop  offset="1" style="stop-color:#414042"/>
				</linearGradient>
				<path style="fill:url(#SVGID_00000065060324148411202700000008603881081280763069_);" d="M554.209,293.957l4.848,5.506
					l-83.909,72.306c-35.999-31.017-115.809-99.785-124.425-107.212c-10.739,9.237-97.263,83.796-141.834,122.203h34.792
					l107.042-92.225c6.497,5.609,101.424,87.395,107.028,92.225h34.791l81.508-70.235l5.004,5.691
					c6.132-18.135,5.946-17.587,12.059-35.637C569.876,290.824,569.018,290.996,554.209,293.957z"/>
			</g>
			
				<linearGradient id="SVGID_00000006681039895920234570000007050328204370939052_" gradientUnits="userSpaceOnUse" x1="513.4301" y1="171.5347" x2="431.2153" y2="328.6428">
				<stop  offset="0" style="stop-color:#27AAE1"/>
				<stop  offset="1" style="stop-color:#2B4D8C"/>
			</linearGradient>
			<path style="fill:url(#SVGID_00000006681039895920234570000007050328204370939052_);" d="M413.611,310.971l17.398,14.988
				l37.942-32.688l4.778,5.44c7.392-21.841,4.663-13.786,12.063-35.634c-11.467,2.292-25.438,5.085-36.896,7.373l5.059,5.756
				L413.611,310.971z"/>
			
				<linearGradient id="SVGID_00000041295818725575939940000014814029255855351442_" gradientUnits="userSpaceOnUse" x1="569.9982" y1="211.368" x2="468.0758" y2="351.0191">
				<stop  offset="0" style="stop-color:#27AAE1"/>
				<stop  offset="1" style="stop-color:#2B4D8C"/>
			</linearGradient>
			<path style="fill:url(#SVGID_00000041295818725575939940000014814029255855351442_);" d="M446.699,339.476l17.397,14.992
				l60.107-51.791l4.894,5.565c7.382-21.839,4.66-13.786,12.057-35.632c-11.459,2.289-25.434,5.083-36.897,7.372l4.949,5.631
				L446.699,339.476z"/>
		</g>
		<g>
			<text transform="matrix(1 0 0 1 158.8799 484.2725)"><tspan x="0" y="0" style="fill:#1C75BC; font-family:'KhmerUI-Bold'; font-size:82.6815px;">Alpha</tspan><tspan x="202.897" y="0" style="fill:#414042; font-family:'KhmerUI-Bold'; font-size:82.6815px;"> </tspan><tspan x="220.425" y="0" style="fill:#414042; font-family:'KhmerUI'; font-size:82.6815px;">House</tspan></text>
			
				<text transform="matrix(1 0 0 1 268.2422 527.3496)" style="fill:#414042; font-family:'KhmerUI'; font-size:40.6733px; letter-spacing:5;">Company slogan</text>
		</g>
	</g>
</g>
</svg>
